<svg class="svg-icon" style="width: 1em; height: 1em;vertical-align: middle;fill: currentColor;overflow: hidden;" viewBox="0 0 1024 1024" version="1.1" xmlns="http://www.w3.org/2000/svg"><path d="M475.324 711.967l8.73 0.918c9.948 1.048 19.202 1.558 28.29 1.558s18.343-0.51 28.296-1.558l8.73-0.918 119.524 190.822c3.771 6.016 9.944 9.467 16.935 9.466 7.116-0.001 16.507-3.861 19.558-14.738l17.879-63.811c8.576-40.924 24.971-35.269 46.497-35.269 2.501 0 5.025 0.197 7.5 0.586l68.692 10.818c1.103 0.174 2.219 0.262 3.314 0.262 7.321 0 13.857-3.916 17.486-10.474 3.631-6.561 3.414-13.992-0.595-20.391l-113.044-180.489 5.826-7.728c20.093-26.659 35.649-56.144 46.239-87.638 10.623-31.595 16.009-64.511 16.009-97.837 0-170.303-138.569-308.855-308.892-308.855-12.49 0-25.184 0.757-37.73 2.249-53.272 6.352-104.467 26.993-148.048 59.695-43.679 32.773-77.679 76.153-98.327 125.451-21.521 51.363-29.164 107.094-22.104 161.171 6.878 52.691 27.516 103.096 59.681 145.762l5.826 7.729-113.066 180.489c-4.010 6.4-4.225 13.834-0.593 20.395 4.192 7.57 12.187 11.562 20.802 10.208l68.679-10.817c2.483-0.389 5.009-0.587 7.51-0.587 41.916-9.405 39.029 9.89 46.467 35.273l17.908 63.826c3.045 10.882 12.431 14.742 19.544 14.742 6.995 0 13.168-3.452 16.937-9.47l119.54-190.842zM345.829 842.728l-22.064-78.494c-2.425-8.664-10.384-14.713-19.355-14.713-1.054 0-2.117 0.084-3.161 0.249l-85.062 13.33 105.473-168.342-10.017-11.301c-43.739-49.238-67.829-112.423-67.829-177.91 0-148.070 120.443-268.534 268.487-268.534 17.224 0 34.702 1.655 51.952 4.916 41.461 7.824 81.177 26.047 114.856 52.696 33.636 26.616 60.522 61.058 77.753 99.607 21.776 48.7 28.924 101.74 20.672 153.385-8.059 50.436-30.353 97.409-64.471 135.844l-10.023 11.298 105.47 168.338-85.065-13.328c-10.151-1.606-19.82 4.792-22.553 14.477l-21.977 78.583-109.537-174.827-13.242 2.184c-14.435 2.379-29.17 3.586-43.797 3.586s-29.361-1.207-43.793-3.586l-13.242-2.183-109.475 174.725zM682.281 346.924c-2.423-7.461-8.512-12.591-16.285-13.723l-68.585-9.976c-15.692-2.271-29.277-12.129-36.34-26.37l-30.652-62.139c-3.471-7.022-10.226-11.216-18.070-11.216-7.847 0-14.609 4.199-18.089 11.231l-30.659 62.102c-7.007 14.247-20.6 24.116-36.357 26.393l-68.562 9.974c-7.768 1.132-13.854 6.267-16.279 13.733-2.421 7.456-0.512 15.177 5.107 20.655l49.642 48.378c11.387 11.118 16.573 27.099 13.875 42.753l-11.692 68.243c-1.029 5.979 0.501 11.758 4.308 16.276 3.883 4.608 9.692 7.359 15.541 7.359 3.213 0 6.373-0.804 9.394-2.392l61.319-32.223c6.89-3.631 14.656-5.551 22.457-5.551 7.797 0 15.568 1.921 22.474 5.556l61.296 32.22c3.015 1.584 6.168 2.389 9.374 2.389 5.841 0 11.649-2.752 15.535-7.359 3.817-4.524 5.355-10.306 4.333-16.281l-11.712-68.249c-2.676-15.686 2.523-31.664 13.905-42.747l49.617-48.373c5.62-5.479 7.53-13.205 5.108-20.662zM573.654 412.175c-4.74 4.635-6.906 11.305-5.79 17.839l10.858 63.54-57-30.011c-5.741-3.013-12.987-3.019-18.746 0.006l-57.029 30 10.886-63.542c1.117-6.536-1.054-13.197-5.807-17.815l-46.123-44.987 63.753-9.255c6.572-0.953 12.25-5.077 15.19-11.030l28.504-57.758 28.499 57.762c2.941 5.953 8.617 10.076 15.183 11.026l63.745 9.259-46.123 44.967z"  /></svg>