<svg class="svg-icon" style="width: 1em; height: 1em;vertical-align: middle;fill: currentColor;overflow: hidden;" viewBox="0 0 1024 1024" version="1.1" xmlns="http://www.w3.org/2000/svg"><path d="M622.083274 706.831838H91.571619c-15.411703 0-27.922141 12.514953-27.922142 27.919884v111.688566c0 15.40493 12.510438 27.922141 27.922142 27.922141h530.513913c15.434281 0 27.922141-12.517211 27.922141-27.922141V734.75398c0-15.407188-12.490118-27.922141-27.924399-27.922142z m-27.919884 111.686308H119.49376v-55.842025h474.66963v55.842025zM566.241249 678.909697c15.434281 0 27.922141-12.514953 27.922141-27.922141 0-15.40493-12.48786-27.919884-27.922141-27.919884H147.415902c-15.413961 0-27.919884 12.514953-27.919884 27.919884 0 15.407188 12.50818 27.922141 27.919884 27.922141h418.825347zM356.826317 371.770657c-289.824016 0-293.179098 193.488451-293.179097 195.450475 0 15.407188 12.510438 27.922141 27.922141 27.922141h530.513913c15.434281 0 27.922141-12.514953 27.922141-27.922141 0.002258-1.962023-3.352824-195.450474-293.179098-195.450475zM125.28726 539.301248c14.185721-40.929294 63.062451-111.686308 231.541315-111.686308 168.485637 0 217.375914 70.757014 231.554862 111.686308H125.28726zM949.510852 324.652749a27.928915 27.928915 0 0 0-20.286281-8.726374h-143.859875l-24.052283-144.189514c-2.506152-15.215275-16.96055-25.440826-32.121638-22.959509-15.213018 2.535503-25.495013 16.91991-22.95951 32.121638l22.496662 135.027385h-22.878229a28.007938 28.007938 0 0 0-20.286281 8.726374 27.956008 27.956008 0 0 0-7.577158 20.751387l27.919884 502.591772c0.817322 14.795326 13.06134 26.368779 27.867954 26.368779h167.530591a27.928915 27.928915 0 0 0 27.89279-26.368779l27.922141-502.591772a27.989875 27.989875 0 0 0-7.608767-20.751387zM874.893011 818.518146h-114.700463l-24.810901-446.747489h164.335811L874.893011 818.518146z" fill="#040000" /></svg>